<mxfile host="app.diagrams.net" modified="2020-11-25T08:50:33.986Z" agent="5.0 (Windows NT 10.0; Win64; x64) AppleWebKit/537.36 (KHTML, like Gecko) Chrome/87.0.4280.66 Safari/537.36" etag="uSC1eo3E9TAHdvGK3KYM" version="13.10.2" type="github">
  <diagram id="C5RBs43oDa-KdzZeNtuy" name="Page-1">
    <mxGraphModel dx="1344" dy="802" grid="1" gridSize="10" guides="1" tooltips="1" connect="1" arrows="1" fold="1" page="1" pageScale="1" pageWidth="827" pageHeight="1169" math="0" shadow="0">
      <root>
        <mxCell id="WIyWlLk6GJQsqaUBKTNV-0" />
        <mxCell id="WIyWlLk6GJQsqaUBKTNV-1" parent="WIyWlLk6GJQsqaUBKTNV-0" />
        <mxCell id="udjuC2YTkA62S7VDw6p0-2" style="edgeStyle=orthogonalEdgeStyle;rounded=0;orthogonalLoop=1;jettySize=auto;html=1;exitX=0.5;exitY=1;exitDx=0;exitDy=0;entryX=0.5;entryY=0;entryDx=0;entryDy=0;" edge="1" parent="WIyWlLk6GJQsqaUBKTNV-1" source="HixWaHeXRbRs7fAAvBFo-0" target="udjuC2YTkA62S7VDw6p0-0">
          <mxGeometry relative="1" as="geometry" />
        </mxCell>
        <mxCell id="HixWaHeXRbRs7fAAvBFo-0" value="标书制作开始" style="rounded=1;whiteSpace=wrap;html=1;" parent="WIyWlLk6GJQsqaUBKTNV-1" vertex="1">
          <mxGeometry x="90" y="40" width="110" height="40" as="geometry" />
        </mxCell>
        <mxCell id="udjuC2YTkA62S7VDw6p0-5" style="edgeStyle=orthogonalEdgeStyle;rounded=0;orthogonalLoop=1;jettySize=auto;html=1;exitX=0.5;exitY=1;exitDx=0;exitDy=0;entryX=0.5;entryY=0;entryDx=0;entryDy=0;" edge="1" parent="WIyWlLk6GJQsqaUBKTNV-1" source="udjuC2YTkA62S7VDw6p0-0" target="udjuC2YTkA62S7VDw6p0-23">
          <mxGeometry relative="1" as="geometry">
            <mxPoint x="145" y="220" as="targetPoint" />
          </mxGeometry>
        </mxCell>
        <mxCell id="udjuC2YTkA62S7VDw6p0-0" value="创建标书" style="rounded=0;whiteSpace=wrap;html=1;" vertex="1" parent="WIyWlLk6GJQsqaUBKTNV-1">
          <mxGeometry x="85" y="130" width="120" height="40" as="geometry" />
        </mxCell>
        <mxCell id="udjuC2YTkA62S7VDw6p0-12" style="edgeStyle=orthogonalEdgeStyle;rounded=0;orthogonalLoop=1;jettySize=auto;html=1;exitX=0.5;exitY=1;exitDx=0;exitDy=0;" edge="1" parent="WIyWlLk6GJQsqaUBKTNV-1" source="udjuC2YTkA62S7VDw6p0-7" target="udjuC2YTkA62S7VDw6p0-8">
          <mxGeometry relative="1" as="geometry" />
        </mxCell>
        <mxCell id="udjuC2YTkA62S7VDw6p0-7" value="制作标书&lt;br&gt;" style="rounded=0;whiteSpace=wrap;html=1;" vertex="1" parent="WIyWlLk6GJQsqaUBKTNV-1">
          <mxGeometry x="90" y="440" width="120" height="40" as="geometry" />
        </mxCell>
        <mxCell id="udjuC2YTkA62S7VDw6p0-13" style="edgeStyle=orthogonalEdgeStyle;rounded=0;orthogonalLoop=1;jettySize=auto;html=1;exitX=0.5;exitY=1;exitDx=0;exitDy=0;entryX=0.5;entryY=0;entryDx=0;entryDy=0;" edge="1" parent="WIyWlLk6GJQsqaUBKTNV-1" source="udjuC2YTkA62S7VDw6p0-8" target="udjuC2YTkA62S7VDw6p0-9">
          <mxGeometry relative="1" as="geometry" />
        </mxCell>
        <mxCell id="udjuC2YTkA62S7VDw6p0-31" style="edgeStyle=orthogonalEdgeStyle;rounded=0;orthogonalLoop=1;jettySize=auto;html=1;entryX=0;entryY=0.25;entryDx=0;entryDy=0;" edge="1" parent="WIyWlLk6GJQsqaUBKTNV-1" source="udjuC2YTkA62S7VDw6p0-8" target="udjuC2YTkA62S7VDw6p0-30">
          <mxGeometry relative="1" as="geometry" />
        </mxCell>
        <mxCell id="udjuC2YTkA62S7VDw6p0-8" value="新建分类" style="rounded=0;whiteSpace=wrap;html=1;" vertex="1" parent="WIyWlLk6GJQsqaUBKTNV-1">
          <mxGeometry x="90" y="510" width="120" height="40" as="geometry" />
        </mxCell>
        <mxCell id="udjuC2YTkA62S7VDw6p0-14" style="edgeStyle=orthogonalEdgeStyle;rounded=0;orthogonalLoop=1;jettySize=auto;html=1;exitX=0.5;exitY=1;exitDx=0;exitDy=0;entryX=0.5;entryY=0;entryDx=0;entryDy=0;" edge="1" parent="WIyWlLk6GJQsqaUBKTNV-1" source="udjuC2YTkA62S7VDw6p0-9" target="udjuC2YTkA62S7VDw6p0-10">
          <mxGeometry relative="1" as="geometry" />
        </mxCell>
        <mxCell id="udjuC2YTkA62S7VDw6p0-32" style="edgeStyle=orthogonalEdgeStyle;rounded=0;orthogonalLoop=1;jettySize=auto;html=1;exitX=1;exitY=0.5;exitDx=0;exitDy=0;" edge="1" parent="WIyWlLk6GJQsqaUBKTNV-1" source="udjuC2YTkA62S7VDw6p0-9" target="udjuC2YTkA62S7VDw6p0-30">
          <mxGeometry relative="1" as="geometry" />
        </mxCell>
        <mxCell id="udjuC2YTkA62S7VDw6p0-9" value="新建章节" style="rounded=0;whiteSpace=wrap;html=1;" vertex="1" parent="WIyWlLk6GJQsqaUBKTNV-1">
          <mxGeometry x="90" y="570" width="120" height="40" as="geometry" />
        </mxCell>
        <mxCell id="udjuC2YTkA62S7VDw6p0-16" style="edgeStyle=orthogonalEdgeStyle;rounded=0;orthogonalLoop=1;jettySize=auto;html=1;exitX=0.5;exitY=1;exitDx=0;exitDy=0;entryX=0.5;entryY=0;entryDx=0;entryDy=0;" edge="1" parent="WIyWlLk6GJQsqaUBKTNV-1" source="udjuC2YTkA62S7VDw6p0-10" target="udjuC2YTkA62S7VDw6p0-15">
          <mxGeometry relative="1" as="geometry" />
        </mxCell>
        <mxCell id="udjuC2YTkA62S7VDw6p0-10" value="导入文档" style="rounded=0;whiteSpace=wrap;html=1;" vertex="1" parent="WIyWlLk6GJQsqaUBKTNV-1">
          <mxGeometry x="90" y="630" width="120" height="40" as="geometry" />
        </mxCell>
        <mxCell id="udjuC2YTkA62S7VDw6p0-18" style="edgeStyle=orthogonalEdgeStyle;rounded=0;orthogonalLoop=1;jettySize=auto;html=1;exitX=0.5;exitY=1;exitDx=0;exitDy=0;entryX=0.5;entryY=0;entryDx=0;entryDy=0;" edge="1" parent="WIyWlLk6GJQsqaUBKTNV-1" source="udjuC2YTkA62S7VDw6p0-15" target="udjuC2YTkA62S7VDw6p0-17">
          <mxGeometry relative="1" as="geometry" />
        </mxCell>
        <mxCell id="udjuC2YTkA62S7VDw6p0-15" value="导出标书" style="rounded=0;whiteSpace=wrap;html=1;" vertex="1" parent="WIyWlLk6GJQsqaUBKTNV-1">
          <mxGeometry x="90" y="700" width="120" height="40" as="geometry" />
        </mxCell>
        <mxCell id="udjuC2YTkA62S7VDw6p0-21" style="edgeStyle=orthogonalEdgeStyle;rounded=0;orthogonalLoop=1;jettySize=auto;html=1;exitX=0.5;exitY=1;exitDx=0;exitDy=0;" edge="1" parent="WIyWlLk6GJQsqaUBKTNV-1" source="udjuC2YTkA62S7VDw6p0-17" target="udjuC2YTkA62S7VDw6p0-20">
          <mxGeometry relative="1" as="geometry" />
        </mxCell>
        <mxCell id="udjuC2YTkA62S7VDw6p0-17" value="归档" style="rounded=0;whiteSpace=wrap;html=1;" vertex="1" parent="WIyWlLk6GJQsqaUBKTNV-1">
          <mxGeometry x="90" y="770" width="120" height="40" as="geometry" />
        </mxCell>
        <mxCell id="udjuC2YTkA62S7VDw6p0-20" value="流程结束" style="rounded=1;whiteSpace=wrap;html=1;" vertex="1" parent="WIyWlLk6GJQsqaUBKTNV-1">
          <mxGeometry x="95" y="840" width="110" height="40" as="geometry" />
        </mxCell>
        <mxCell id="udjuC2YTkA62S7VDw6p0-26" style="edgeStyle=orthogonalEdgeStyle;rounded=0;orthogonalLoop=1;jettySize=auto;html=1;exitX=0.5;exitY=1;exitDx=0;exitDy=0;entryX=0.5;entryY=0;entryDx=0;entryDy=0;" edge="1" parent="WIyWlLk6GJQsqaUBKTNV-1" source="udjuC2YTkA62S7VDw6p0-23" target="udjuC2YTkA62S7VDw6p0-24">
          <mxGeometry relative="1" as="geometry" />
        </mxCell>
        <mxCell id="udjuC2YTkA62S7VDw6p0-23" value="上传封面" style="rounded=0;whiteSpace=wrap;html=1;" vertex="1" parent="WIyWlLk6GJQsqaUBKTNV-1">
          <mxGeometry x="240" y="230" width="120" height="40" as="geometry" />
        </mxCell>
        <mxCell id="udjuC2YTkA62S7VDw6p0-27" style="edgeStyle=orthogonalEdgeStyle;rounded=0;orthogonalLoop=1;jettySize=auto;html=1;exitX=0.5;exitY=1;exitDx=0;exitDy=0;entryX=0.5;entryY=0;entryDx=0;entryDy=0;" edge="1" parent="WIyWlLk6GJQsqaUBKTNV-1" source="udjuC2YTkA62S7VDw6p0-24" target="udjuC2YTkA62S7VDw6p0-25">
          <mxGeometry relative="1" as="geometry" />
        </mxCell>
        <mxCell id="udjuC2YTkA62S7VDw6p0-24" value="填写名称" style="rounded=0;whiteSpace=wrap;html=1;" vertex="1" parent="WIyWlLk6GJQsqaUBKTNV-1">
          <mxGeometry x="240" y="290" width="120" height="40" as="geometry" />
        </mxCell>
        <mxCell id="udjuC2YTkA62S7VDw6p0-28" style="edgeStyle=orthogonalEdgeStyle;rounded=0;orthogonalLoop=1;jettySize=auto;html=1;entryX=0.5;entryY=0;entryDx=0;entryDy=0;" edge="1" parent="WIyWlLk6GJQsqaUBKTNV-1" source="udjuC2YTkA62S7VDw6p0-25" target="udjuC2YTkA62S7VDw6p0-7">
          <mxGeometry relative="1" as="geometry" />
        </mxCell>
        <mxCell id="udjuC2YTkA62S7VDw6p0-25" value="&lt;span&gt;添加成员&lt;/span&gt;" style="rounded=0;whiteSpace=wrap;html=1;" vertex="1" parent="WIyWlLk6GJQsqaUBKTNV-1">
          <mxGeometry x="240" y="350" width="120" height="40" as="geometry" />
        </mxCell>
        <mxCell id="udjuC2YTkA62S7VDw6p0-30" value="&lt;span&gt;可分配给不同的成员完成.成员可以接受邀请信息，管理员可以查看完成情况&lt;/span&gt;" style="rounded=0;whiteSpace=wrap;html=1;" vertex="1" parent="WIyWlLk6GJQsqaUBKTNV-1">
          <mxGeometry x="340" y="545" width="120" height="105" as="geometry" />
        </mxCell>
      </root>
    </mxGraphModel>
  </diagram>
</mxfile>
